<?xml version="1.0" encoding="UTF-8" standalone="no"?>
<!DOCTYPE svg PUBLIC "-//W3C//DTD SVG 1.1//EN"
 "http://www.w3.org/Graphics/SVG/1.1/DTD/svg11.dtd">
<!-- Generated by graphviz version 2.40.1 (20161225.0304)
 -->
<!-- Title: G Pages: 1 -->
<svg width="230pt" height="270pt"
 viewBox="0.00 0.00 229.50 270.00" xmlns="http://www.w3.org/2000/svg" xmlns:xlink="http://www.w3.org/1999/xlink">
<g id="graph0" class="graph" transform="scale(1 1) rotate(0) translate(4 266)">
<title>G</title>
<polygon fill="#ffffff" stroke="transparent" points="-4,4 -4,-266 225.5,-266 225.5,4 -4,4"/>
<!-- A0 -->
<g id="node1" class="node">
<title>A0</title>
<polygon fill="none" stroke="#000000" points="0,-230 0,-262 102,-262 102,-230 0,-230"/>
<text text-anchor="start" x="28.9175" y="-243" font-family="Helvetica,sans-Serif" font-size="10.00" fill="#000000">+MyClass</text>
<polygon fill="none" stroke="#000000" points="0,-198 0,-230 102,-230 102,-198 0,-198"/>
<text text-anchor="start" x="14.747" y="-211" font-family="Helvetica,sans-Serif" font-size="10.00" fill="#000000">+myString:string</text>
<polygon fill="none" stroke="#000000" points="0,-166 0,-198 102,-198 102,-166 0,-166"/>
<text text-anchor="start" x="9.748" y="-179" font-family="Helvetica,sans-Serif" font-size="10.00" fill="#000000">+MyString:string:w</text>
<polygon fill="none" stroke="#000000" points="0,-134 0,-166 102,-166 102,-134 0,-134"/>
<text text-anchor="start" x="19.7465" y="-147" font-family="Helvetica,sans-Serif" font-size="10.00" fill="#000000">+GetString():v</text>
<polygon fill="none" stroke="#000000" points="0,-114 0,-134 102,-134 102,-114 0,-114"/>
</g>
<!-- A1 -->
<g id="node2" class="node">
<title>A1</title>
<polygon fill="none" stroke="#000000" points="2,-32 2,-64 100,-64 100,-32 2,-32"/>
<text text-anchor="start" x="11.6955" y="-45" font-family="Helvetica,sans-Serif" font-size="10.00" fill="#000000">+MyDerivedClass</text>
<polygon fill="none" stroke="#000000" points="2,0 2,-32 100,-32 100,0 2,0"/>
<text text-anchor="start" x="19.467" y="-13" font-family="Helvetica,sans-Serif" font-size="10.00" fill="#000000">+GetString():o</text>
</g>
<!-- A0&#45;&gt;A1 -->
<g id="edge1" class="edge">
<title>A0&#45;&gt;A1</title>
<path fill="none" stroke="#000000" d="M51,-103.4452C51,-89.4567 51,-75.7514 51,-64.146"/>
<polygon fill="#000000" stroke="#000000" points="51,-113.6551 46.5001,-103.655 51,-108.6551 51.0001,-103.6551 51.0001,-103.6551 51.0001,-103.6551 51,-108.6551 55.5001,-103.6551 51,-113.6551 51,-113.6551"/>
</g>
<!-- A2 -->
<g id="node3" class="node">
<title>A2</title>
<polygon fill="none" stroke="#000000" points="121,-194 121,-226 222,-226 222,-194 121,-194"/>
<text text-anchor="start" x="150.669" y="-207" font-family="Helvetica,sans-Serif" font-size="10.00" fill="#000000">&#45;Program</text>
<polygon fill="none" stroke="#000000" points="121,-150 121,-194 222,-194 222,-150 121,-150"/>
<text text-anchor="start" x="153.4485" y="-175" font-family="Helvetica,sans-Serif" font-size="10.00" fill="#000000">Main():s</text>
<text text-anchor="start" x="130.934" y="-163" font-family="Helvetica,sans-Serif" font-size="10.00" fill="#000000">outputString:string</text>
</g>
</g>
</svg>
