<?xml version="1.0" encoding="UTF-8" standalone="no"?>
<!DOCTYPE svg PUBLIC "-//W3C//DTD SVG 1.1//EN"
 "http://www.w3.org/Graphics/SVG/1.1/DTD/svg11.dtd">
<!-- Generated by graphviz version 2.40.1 (20161225.0304)
 -->
<!-- Title: G Pages: 1 -->
<svg width="326pt" height="410pt"
 viewBox="0.00 0.00 325.50 410.00" xmlns="http://www.w3.org/2000/svg" xmlns:xlink="http://www.w3.org/1999/xlink">
<g id="graph0" class="graph" transform="scale(1 1) rotate(0) translate(4 406)">
<title>G</title>
<polygon fill="#ffffff" stroke="transparent" points="-4,4 -4,-406 321.5,-406 321.5,4 -4,4"/>
<!-- A0 -->
<g id="node1" class="node">
<title>A0</title>
<polygon fill="none" stroke="#000000" points="105.5,-370 105.5,-402 201.5,-402 201.5,-370 105.5,-370"/>
<text text-anchor="start" x="119.461" y="-383" font-family="Helvetica,sans-Serif" font-size="10.00" fill="#000000">+A:VideoGame</text>
<polygon fill="none" stroke="#000000" points="105.5,-326 105.5,-370 201.5,-370 201.5,-326 105.5,-326"/>
<text text-anchor="start" x="130.446" y="-351" font-family="Helvetica,sans-Serif" font-size="10.00" fill="#000000">&#45;title:string</text>
<text text-anchor="start" x="116.2725" y="-339" font-family="Helvetica,sans-Serif" font-size="10.00" fill="#000000">&#45;developer:string</text>
<polygon fill="none" stroke="#000000" points="105.5,-294 105.5,-326 201.5,-326 201.5,-294 105.5,-294"/>
<text text-anchor="start" x="115.0175" y="-307" font-family="Helvetica,sans-Serif" font-size="10.00" fill="#000000">+GameInfo:string</text>
<polygon fill="none" stroke="#000000" points="105.5,-238 105.5,-294 201.5,-294 201.5,-238 105.5,-238"/>
<text text-anchor="start" x="130.0255" y="-275" font-family="Helvetica,sans-Serif" font-size="10.00" fill="#000000">+Install():a</text>
<text text-anchor="start" x="128.6355" y="-263" font-family="Helvetica,sans-Serif" font-size="10.00" fill="#000000">+Delete():a</text>
<text text-anchor="start" x="131.414" y="-251" font-family="Helvetica,sans-Serif" font-size="10.00" fill="#000000">+Rage():v</text>
<polygon fill="none" stroke="#000000" points="105.5,-218 105.5,-238 201.5,-238 201.5,-218 105.5,-218"/>
</g>
<!-- A3 -->
<g id="node4" class="node">
<title>A3</title>
<polygon fill="none" stroke="#000000" points="44.5,-124 44.5,-156 144.5,-156 144.5,-124 44.5,-124"/>
<text text-anchor="start" x="54.3525" y="-137" font-family="Helvetica,sans-Serif" font-size="10.00" fill="#000000">+SinglePlayerRpg</text>
<polygon fill="none" stroke="#000000" points="44.5,-32 44.5,-124 144.5,-124 144.5,-32 44.5,-32"/>
<text text-anchor="start" x="77.694" y="-105" font-family="Helvetica,sans-Serif" font-size="10.00" fill="#000000">+Start()</text>
<text text-anchor="start" x="78.528" y="-93" font-family="Helvetica,sans-Serif" font-size="10.00" fill="#000000">+Play()</text>
<text text-anchor="start" x="74.919" y="-81" font-family="Helvetica,sans-Serif" font-size="10.00" fill="#000000">+Finish()</text>
<text text-anchor="start" x="71.0255" y="-69" font-family="Helvetica,sans-Serif" font-size="10.00" fill="#000000">+Install():o</text>
<text text-anchor="start" x="69.6355" y="-57" font-family="Helvetica,sans-Serif" font-size="10.00" fill="#000000">+Delete():o</text>
<text text-anchor="start" x="75.4635" y="-45" font-family="Helvetica,sans-Serif" font-size="10.00" fill="#000000">+Rage:o</text>
<polygon fill="none" stroke="#000000" points="44.5,-12 44.5,-32 144.5,-32 144.5,-12 44.5,-12"/>
</g>
<!-- A0&#45;&gt;A3 -->
<g id="edge1" class="edge">
<title>A0&#45;&gt;A3</title>
<path fill="none" stroke="#000000" stroke-dasharray="5,2" d="M126.766,-207.5951C122.2402,-190.2589 117.6267,-172.5871 113.3568,-156.2312"/>
<polygon fill="#000000" stroke="#000000" points="129.4173,-217.7512 122.5372,-209.2122 128.1543,-212.9133 126.8913,-208.0755 126.8913,-208.0755 126.8913,-208.0755 128.1543,-212.9133 131.2454,-206.9388 129.4173,-217.7512 129.4173,-217.7512"/>
</g>
<!-- A4 -->
<g id="node5" class="node">
<title>A4</title>
<polygon fill="none" stroke="#000000" points="188.5,-136 188.5,-168 297.5,-168 297.5,-136 188.5,-136"/>
<text text-anchor="start" x="198.409" y="-149" font-family="Helvetica,sans-Serif" font-size="10.00" fill="#000000">+MultiplayerShooter</text>
<polygon fill="none" stroke="#000000" points="188.5,-20 188.5,-136 297.5,-136 297.5,-20 188.5,-20"/>
<text text-anchor="start" x="226.194" y="-117" font-family="Helvetica,sans-Serif" font-size="10.00" fill="#000000">+Start()</text>
<text text-anchor="start" x="227.028" y="-105" font-family="Helvetica,sans-Serif" font-size="10.00" fill="#000000">+Play()</text>
<text text-anchor="start" x="224.529" y="-93" font-family="Helvetica,sans-Serif" font-size="10.00" fill="#000000">+Grind()</text>
<text text-anchor="start" x="200.638" y="-81" font-family="Helvetica,sans-Serif" font-size="10.00" fill="#000000">+PlayCompetitive()</text>
<text text-anchor="start" x="220.084" y="-69" font-family="Helvetica,sans-Serif" font-size="10.00" fill="#000000">+GiveUp()</text>
<text text-anchor="start" x="219.5255" y="-57" font-family="Helvetica,sans-Serif" font-size="10.00" fill="#000000">+Install():o</text>
<text text-anchor="start" x="218.1355" y="-45" font-family="Helvetica,sans-Serif" font-size="10.00" fill="#000000">+Delete():o</text>
<text text-anchor="start" x="223.9635" y="-33" font-family="Helvetica,sans-Serif" font-size="10.00" fill="#000000">+Rage:o</text>
<polygon fill="none" stroke="#000000" points="188.5,0 188.5,-20 297.5,-20 297.5,0 188.5,0"/>
</g>
<!-- A0&#45;&gt;A4 -->
<g id="edge3" class="edge">
<title>A0&#45;&gt;A4</title>
<path fill="none" stroke="#000000" stroke-dasharray="5,2" d="M193.6248,-208.11C198.8646,-194.8045 204.1861,-181.2914 209.2949,-168.3185"/>
<polygon fill="#000000" stroke="#000000" points="189.8281,-217.7512 189.3053,-206.7978 191.6602,-213.0989 193.4923,-208.4467 193.4923,-208.4467 193.4923,-208.4467 191.6602,-213.0989 197.6793,-210.0956 189.8281,-217.7512 189.8281,-217.7512"/>
</g>
<!-- A1 -->
<g id="node2" class="node">
<title>A1</title>
<polygon fill="none" stroke="#000000" points=".5,-328 .5,-360 87.5,-360 87.5,-328 .5,-328"/>
<text text-anchor="start" x="10.242" y="-341" font-family="Helvetica,sans-Serif" font-size="10.00" fill="#000000">+:ISinglePlayer</text>
<polygon fill="none" stroke="#000000" points=".5,-260 .5,-328 87.5,-328 87.5,-260 .5,-260"/>
<text text-anchor="start" x="30.1135" y="-309" font-family="Helvetica,sans-Serif" font-size="10.00" fill="#000000">Start()</text>
<text text-anchor="start" x="29.558" y="-297" font-family="Helvetica,sans-Serif" font-size="10.00" fill="#000000"> Play()</text>
<text text-anchor="start" x="27.3385" y="-273" font-family="Helvetica,sans-Serif" font-size="10.00" fill="#000000">Finish()</text>
</g>
<!-- A1&#45;&gt;A3 -->
<g id="edge2" class="edge">
<title>A1&#45;&gt;A3</title>
<path fill="none" stroke="#000000" d="M57.0546,-249.9346C63.5443,-221.1764 71.3675,-186.5086 78.1814,-156.3139"/>
<polygon fill="none" stroke="#000000" points="53.6058,-249.3181 54.8186,-259.8433 60.4341,-250.859 53.6058,-249.3181"/>
</g>
<!-- A2 -->
<g id="node3" class="node">
<title>A2</title>
<polygon fill="none" stroke="#000000" points="219.5,-352 219.5,-384 317.5,-384 317.5,-352 219.5,-352"/>
<text text-anchor="start" x="238.0815" y="-365" font-family="Helvetica,sans-Serif" font-size="10.00" fill="#000000">+:IMultiPlayer</text>
<polygon fill="none" stroke="#000000" points="219.5,-236 219.5,-352 317.5,-352 317.5,-236 219.5,-236"/>
<text text-anchor="start" x="254.6135" y="-333" font-family="Helvetica,sans-Serif" font-size="10.00" fill="#000000">Start()</text>
<text text-anchor="start" x="254.058" y="-321" font-family="Helvetica,sans-Serif" font-size="10.00" fill="#000000"> Play()</text>
<text text-anchor="start" x="252.9485" y="-297" font-family="Helvetica,sans-Serif" font-size="10.00" fill="#000000">Grind()</text>
<text text-anchor="start" x="229.0575" y="-273" font-family="Helvetica,sans-Serif" font-size="10.00" fill="#000000">PlayCompetitive()</text>
<text text-anchor="start" x="248.5035" y="-249" font-family="Helvetica,sans-Serif" font-size="10.00" fill="#000000">GiveUp()</text>
</g>
<!-- A2&#45;&gt;A4 -->
<g id="edge4" class="edge">
<title>A2&#45;&gt;A4</title>
<path fill="none" stroke="#000000" d="M258.8336,-225.9769C256.6685,-207.1574 254.3712,-187.1879 252.2045,-168.3549"/>
<polygon fill="none" stroke="#000000" points="255.3666,-226.4647 259.9866,-235.9991 262.3207,-225.6646 255.3666,-226.4647"/>
</g>
</g>
</svg>
